{"accessors":[{"bufferView":0,"componentType":5123,"count":107142,"max":[20055],"min":[0],"type":"SCALAR"},{"bufferView":1,"componentType":5126,"count":20056,"max":[4.709967136383057,9.530999183654785,5.436970233917236],"min":[-3.996764898300171,-8.407657623291016,-9.407411575317383],"type":"VEC3"},{"bufferView":2,"componentType":5126,"count":20056,"max":[0.999969482421875,0.99993896484375,0.999969482421875],"min":[-0.999969482421875,-0.999969482421875,-0.999969482421875],"type":"VEC3"},{"bufferView":3,"componentType":5126,"count":20056,"max":[0.9720140099525452,0.9718139991164207],"min":[0.02798599936068058,0.028186023235321045],"type":"VEC2"}],"asset":{"generator":"Khronos Blender glTF 2.0 exporter","version":"2.0"},"bufferViews":[{"buffer":0,"byteLength":214284,"byteOffset":0,"target":34963},{"buffer":0,"byteLength":240672,"byteOffset":214284,"target":34962},{"buffer":0,"byteLength":240672,"byteOffset":454956,"target":34962},{"buffer":0,"byteLength":160448,"byteOffset":695628,"target":34962}],"buffers":[{"byteLength":856076,"uri":"data:application/octet-stream;base64,"}],"images":[{"mimeType":"image/jpeg","name":"headrest_diffuse","uri":"data:image/jpeg;base64,"}],"materials":[{"alphaMode":"BLEND","name":"diffuse","pbrMetallicRoughness":{"baseColorFactor":[0.6399999856948853,0.6399999856948853,0.6399999856948853,1.0],"baseColorTexture":{"index":0},"metallicFactor":0.0}}],"meshes":[{"name":"headrest-low_headrest-mesh-optimised","primitives":[{"attributes":{"NORMAL":2,"POSITION":1,"TEXCOORD_0":3},"indices":0,"material":0}]}],"nodes":[{"mesh":0,"name":"headrest-low_headrest-mesh-optimised","rotation":[0.7071068286895752,0.0,-0.0,0.7071067094802856]}],"samplers":[{}],"scene":0,"scenes":[{"name":"Scene","nodes":[0]}],"textures":[{"sampler":0,"source":0}]}
